# File created by Blade
# Date/Time:  Fri Jan 16 19:49:56 2015
# Frame Rate: 120.000 fps
#------------------------------------------------------
:FULLY-SPECIFIED
:DEGREES
594
root 19.919518 35.043261 -11.892769 -107.150015 1.845551 -178.895774
Spine 71.310944 0.391549 -8.689188
Head -17.963704 3.610230 -1.468826
LeftShoulder -21.352779 19.763639 11.752587
LeftArm -59.398657 10.218879 -99.172823
LeftForeArm 22.072623 -0.000000 -0.885506
LeftHand -1.660563 0.000000 -42.134023
LeftHandThumb1 -26.253704 0.000000 33.147579
RightShoulder -26.868799 -50.718118 -4.327906
RightArm -22.018172 -22.545173 83.458979
RightForeArm -36.828478 -0.000000 6.875619
RightHand 4.229112 -0.000000 48.642766
RightHandThumb1 -24.326973 -0.000000 -32.862282
LeftUpLeg -79.070514 5.679441 2.545264
LeftLeg -5.454699 -0.000000 0.000000
LeftFoot -5.891561 32.259957 -8.129769
LeftToeBase 27.138779 -0.000000 -0.000000
RightUpLeg -79.299052 -3.235541 -5.219771
RightLeg -4.331162 -0.000000 0.000000
RightFoot -5.973648 -18.743880 13.123092
RightToeBase 27.368094 -0.000000 -0.000000
595
root 19.921731 35.040613 -11.886167 -107.076056 1.828907 -178.883523
Spine 71.309198 0.414669 -8.693761
Head -17.899153 3.612855 -1.462038
LeftShoulder -21.341655 19.819923 11.779665
LeftArm -59.392366 10.192909 -99.103405
LeftForeArm 22.154764 -0.000000 -0.895480
LeftHand -1.693303 -0.000000 -42.151130
LeftHandThumb1 -26.253704 0.000000 33.147579
RightShoulder -26.926973 -50.856168 -4.272048
RightArm -21.918732 -22.364692 83.357734
RightForeArm -36.900059 -0.000000 6.820034
RightHand 4.221998 0.000000 48.590702
RightHandThumb1 -24.326973 -0.000000 -32.862282
LeftUpLeg -79.125735 5.696405 2.550249
LeftLeg -5.510940 -0.000000 0.000000
LeftFoot -5.820397 32.246026 -8.043015
LeftToeBase 27.160118 -0.000000 -0.000000
RightUpLeg -79.354832 -3.235621 -5.188748
RightLeg -4.384804 -0.000000 0.000000
RightFoot -5.937750 -18.738899 13.114105
RightToeBase 27.385713 -0.000000 -0.000000
596
root 19.924226 35.038612 -11.879382 -106.995432 1.812212 -178.874065
Spine 71.286879 0.446359 -8.646249
Head -17.815525 3.580575 -1.465627
LeftShoulder -21.280611 19.875222 11.797143
LeftArm -59.356731 10.137272 -98.957951
LeftForeArm 22.274846 -0.000000 -0.928140
LeftHand -1.708991 -0.000000 -42.152092
LeftHandThumb1 -26.253704 0.000000 33.147579
RightShoulder -26.995039 -50.926614 -4.246662
RightArm -21.921619 -22.074673 83.274937
RightForeArm -37.093216 -0.000000 6.835386
RightHand 4.175743 -0.000000 48.572537
RightHandThumb1 -24.326973 -0.000000 -32.862282
LeftUpLeg -79.188688 5.708046 2.543968
LeftLeg -5.580002 -0.000000 0.000000
LeftFoot -5.758683 32.263172 -8.010324
LeftToeBase 27.134171 -0.000000 -0.000000
RightUpLeg -79.412829 -3.237749 -5.167432
RightLeg -4.450075 -0.000000 0.000000
RightFoot -5.893464 -18.747353 13.119880
RightToeBase 27.412089 -0.000000 -0.000000
597
root 19.928155 35.036635 -11.872878 -106.933194 1.796122 -178.853436
Spine 71.278963 0.495284 -8.619027
Head -17.794005 3.562863 -1.457964
LeftShoulder -21.252235 19.870575 11.802367
LeftArm -59.406391 10.074900 -98.788613
LeftForeArm 22.395313 -0.000000 -0.916987
LeftHand -1.714436 -0.000000 -42.108270
LeftHandThumb1 -26.253704 0.000000 33.147579
RightShoulder -27.089664 -50.983704 -4.173540
RightArm -21.913971 -21.947875 83.205157
RightForeArm -37.182949 -0.000000 6.812212
RightHand 4.149693 -0.000000 48.553666
RightHandThumb1 -24.326973 -0.000000 -32.862282
LeftUpLeg -79.235334 5.735745 2.545786
LeftLeg -5.633353 -0.000000 0.000000
LeftFoot -5.719939 32.255603 -7.978620
LeftToeBase 27.143708 -0.000000 -0.000000
RightUpLeg -79.445981 -3.221010 -5.165151
RightLeg -4.524789 -0.000000 0.000000
RightFoot -5.842706 -18.783000 13.140067
RightToeBase 27.344061 -0.000000 -0.000000
598
root 19.933641 35.034732 -11.867131 -106.873591 1.765785 -178.838983
Spine 71.251971 0.534929 -8.580125
Head -17.762537 3.510462 -1.438216
LeftShoulder -21.229279 19.913976 11.794522
LeftArm -59.392200 9.996685 -98.570694
LeftForeArm 22.513458 -0.000000 -0.920474
LeftHand -1.784831 -0.000000 -42.066339
LeftHandThumb1 -26.253704 0.000000 33.147579
RightShoulder -27.148709 -51.045501 -4.122273
RightArm -21.937340 -21.844331 83.170227
RightForeArm -37.300428 -0.000000 6.859112
RightHand 4.126259 0.000000 48.529099
RightHandThumb1 -24.326973 -0.000000 -32.862282
LeftUpLeg -79.282490 5.755625 2.558637
LeftLeg -5.684113 -0.000000 0.000000
LeftFoot -5.682208 32.244539 -7.974275
LeftToeBase 27.164647 -0.000000 -0.000000
RightUpLeg -79.470470 -3.217659 -5.133897
RightLeg -4.607873 -0.000000 0.000000
RightFoot -5.789407 -18.787228 13.160656
RightToeBase 27.310280 -0.000000 -0.000000
599
root 19.940369 35.032966 -11.861682 -106.840188 1.726175 -178.808861
Spine 71.251586 0.590727 -8.605071
Head -17.816852 3.520817 -1.348126
LeftShoulder -21.307165 19.959212 11.806912
LeftArm -59.367938 9.907438 -98.342254
LeftForeArm 22.665623 -0.000000 -0.941635
LeftHand -1.871955 0.000000 -41.991793
LeftHandThumb1 -26.253704 0.000000 33.147579
RightShoulder -27.124968 -51.094950 -4.092530
RightArm -21.931683 -21.916047 83.151754
RightForeArm -37.200401 -0.000000 6.853313
RightHand 4.137743 0.000000 48.512958
RightHandThumb1 -24.326973 -0.000000 -32.862282
LeftUpLeg -79.299492 5.786640 2.607923
LeftLeg -5.740413 -0.000000 0.000000
LeftFoot -5.667925 32.257128 -8.002293
LeftToeBase 27.170530 -0.000000 -0.000000
RightUpLeg -79.459361 -3.192683 -5.107760
RightLeg -4.705448 -0.000000 0.000000
RightFoot -5.727850 -18.817794 13.166812
RightToeBase 27.351136 -0.000000 -0.000000
600
root 19.948648 35.031779 -11.855657 -106.808048 1.678718 -178.781675
Spine 71.224955 0.630332 -8.609737
Head -17.822479 3.535957 -1.273317
LeftShoulder -21.350253 20.012860 11.794409
LeftArm -59.352154 9.820176 -98.145512
LeftForeArm 22.806048 -0.000000 -0.933943
LeftHand -1.893865 -0.000000 -41.933286
LeftHandThumb1 -26.253704 0.000000 33.147579
RightShoulder -27.150424 -51.208927 -4.041664
RightArm -21.834417 -21.939199 83.114107
RightForeArm -37.204338 -0.000000 6.803685
RightHand 4.135811 -0.000000 48.514425
RightHandThumb1 -24.326973 -0.000000 -32.862282
LeftUpLeg -79.314653 5.814287 2.674233
LeftLeg -5.795303 -0.000000 0.000000
LeftFoot -5.624195 32.270569 -7.988115
LeftToeBase 27.158926 -0.000000 -0.000000
RightUpLeg -79.437614 -3.165271 -5.116674
RightLeg -4.814727 -0.000000 0.000000
RightFoot -5.666125 -18.876345 13.197480
RightToeBase 27.301571 -0.000000 -0.000000
